<?xml version="1.0" encoding="UTF-8" standalone="no"?>
<!DOCTYPE svg PUBLIC "-//W3C//DTD SVG 1.1//EN" "http://www.w3.org/Graphics/SVG/1.1/DTD/svg11.dtd">
<svg width="360" height="360" viewBox="0 0 360 360" version="1.1" xmlns="http://www.w3.org/2000/svg">
<rect x="0" y="0" width="360" height="360" style="fill:white;"/>
<circle cx="180.0" cy="180.0" r="145.30963" fill="rgb(20,134,134)" />
<circle cx="180.0" cy="180.0" r="31.01317" fill="rgb(104,218,218)" />
<circle cx="180.0" cy="180.0" r="29.074848" fill="rgb(186,45,45)" />
<circle cx="180.0" cy="180.0" r="26.425806" fill="rgb(54,168,168)" />
<circle cx="180.0" cy="180.0" r="25.844309" fill="rgb(54,168,168)" />
<circle cx="180.0" cy="180.0" r="16.346525" fill="rgb(209,68,68)" />
<circle cx="180.0" cy="180.0" r="15.183532" fill="rgb(250,109,109)" />
<circle cx="180.0" cy="180.0" r="14.472813" fill="rgb(36,150,150)" />
<circle cx="180.0" cy="180.0" r="14.27898" fill="rgb(36,150,150)" />
<circle cx="180.0" cy="180.0" r="13.568262" fill="rgb(36,150,150)" />
<circle cx="180.0" cy="180.0" r="12.469879" fill="rgb(118,232,232)" />
<circle cx="180.0" cy="180.0" r="10.337724" fill="rgb(200,59,59)" />
<circle cx="180.0" cy="180.0" r="10.208502" fill="rgb(200,59,59)" />
<circle cx="180.0" cy="180.0" r="8.851676" fill="rgb(241,100,100)" />
<circle cx="180.0" cy="180.0" r="8.334789" fill="rgb(27,141,141)" />
<circle cx="180.0" cy="180.0" r="7.688682" fill="rgb(27,141,141)" />
<circle cx="180.0" cy="180.0" r="7.171796" fill="rgb(68,182,182)" />
<circle cx="180.0" cy="180.0" r="6.9133525" fill="rgb(68,182,182)" />
<circle cx="180.0" cy="180.0" r="6.525688" fill="rgb(68,182,182)" />
<circle cx="180.0" cy="180.0" r="5.944191" fill="rgb(109,223,223)" />
<circle cx="180.0" cy="180.0" r="5.944191" fill="rgb(109,223,223)" />
<circle cx="180.0" cy="180.0" r="5.3626943" fill="rgb(150,9,9)" />
<circle cx="180.0" cy="180.0" r="4.845808" fill="rgb(150,9,9)" />
<circle cx="180.0" cy="180.0" r="4.0704784" fill="rgb(191,50,50)" />
<circle cx="180.0" cy="180.0" r="4.005868" fill="rgb(191,50,50)" />
<circle cx="180.0" cy="180.0" r="3.8766463" fill="rgb(191,50,50)" />
<circle cx="180.0" cy="180.0" r="3.8766463" fill="rgb(191,50,50)" />
<circle cx="180.0" cy="180.0" r="3.4889817" fill="rgb(232,91,91)" />
<circle cx="180.0" cy="180.0" r="3.165928" fill="rgb(232,91,91)" />
<circle cx="180.0" cy="180.0" r="3.0367062" fill="rgb(232,91,91)" />
<circle cx="180.0" cy="180.0" r="2.778263" fill="rgb(232,91,91)" />
<circle cx="180.0" cy="180.0" r="2.584431" fill="rgb(232,91,91)" />
<circle cx="180.0" cy="180.0" r="2.5198202" fill="rgb(232,91,91)" />
<circle cx="180.0" cy="180.0" r="2.3259878" fill="rgb(18,132,132)" />
<circle cx="180.0" cy="180.0" r="2.261377" fill="rgb(18,132,132)" />
<circle cx="180.0" cy="180.0" r="2.1967661" fill="rgb(18,132,132)" />
<circle cx="180.0" cy="180.0" r="2.1967661" fill="rgb(18,132,132)" />
<circle cx="180.0" cy="180.0" r="2.1967661" fill="rgb(18,132,132)" />
<circle cx="180.0" cy="180.0" r="2.0675447" fill="rgb(18,132,132)" />
<circle cx="180.0" cy="180.0" r="2.002934" fill="rgb(18,132,132)" />
<circle cx="180.0" cy="180.0" r="2.002934" fill="rgb(18,132,132)" />
<circle cx="180.0" cy="180.0" r="1.9383231" fill="rgb(18,132,132)" />
<circle cx="180.0" cy="180.0" r="1.8737124" fill="rgb(18,132,132)" />
<circle cx="180.0" cy="180.0" r="1.8737124" fill="rgb(18,132,132)" />
<circle cx="180.0" cy="180.0" r="1.8091016" fill="rgb(18,132,132)" />
<circle cx="180.0" cy="180.0" r="1.7444909" fill="rgb(18,132,132)" />
<circle cx="180.0" cy="180.0" r="1.6152693" fill="rgb(18,132,132)" />
<circle cx="180.0" cy="180.0" r="1.4860477" fill="rgb(59,173,173)" />
<circle cx="180.0" cy="180.0" r="1.4860477" fill="rgb(59,173,173)" />
<circle cx="180.0" cy="180.0" r="1.4860477" fill="rgb(59,173,173)" />
<circle cx="180.0" cy="180.0" r="1.4860477" fill="rgb(59,173,173)" />
<circle cx="180.0" cy="180.0" r="1.4860477" fill="rgb(59,173,173)" />
<circle cx="180.0" cy="180.0" r="1.421437" fill="rgb(59,173,173)" />
<circle cx="180.0" cy="180.0" r="1.3568262" fill="rgb(59,173,173)" />
<circle cx="180.0" cy="180.0" r="1.3568262" fill="rgb(59,173,173)" />
<circle cx="180.0" cy="180.0" r="1.3568262" fill="rgb(59,173,173)" />
<circle cx="180.0" cy="180.0" r="1.3568262" fill="rgb(59,173,173)" />
<circle cx="180.0" cy="180.0" r="1.2922155" fill="rgb(59,173,173)" />
<circle cx="180.0" cy="180.0" r="1.2922155" fill="rgb(59,173,173)" />
<circle cx="180.0" cy="180.0" r="1.1629939" fill="rgb(59,173,173)" />
<circle cx="180.0" cy="180.0" r="1.0983831" fill="rgb(59,173,173)" />
<circle cx="180.0" cy="180.0" r="1.0983831" fill="rgb(59,173,173)" />
<circle cx="180.0" cy="180.0" r="1.0337723" fill="rgb(59,173,173)" />
<circle cx="180.0" cy="180.0" r="1.0337723" fill="rgb(59,173,173)" />
<circle cx="180.0" cy="180.0" r="1.0337723" fill="rgb(59,173,173)" />
<circle cx="180.0" cy="180.0" r="1.0337723" fill="rgb(59,173,173)" />
<circle cx="180.0" cy="180.0" r="0.96916157" fill="rgb(59,173,173)" />
<circle cx="180.0" cy="180.0" r="0.96916157" fill="rgb(59,173,173)" />
<circle cx="180.0" cy="180.0" r="0.9045508" fill="rgb(59,173,173)" />
<circle cx="180.0" cy="180.0" r="0.83994" fill="rgb(59,173,173)" />
<circle cx="180.0" cy="180.0" r="0.83994" fill="rgb(59,173,173)" />
<circle cx="180.0" cy="180.0" r="0.83994" fill="rgb(59,173,173)" />
<circle cx="180.0" cy="180.0" r="0.83994" fill="rgb(59,173,173)" />
<circle cx="180.0" cy="180.0" r="0.83994" fill="rgb(59,173,173)" />
<circle cx="180.0" cy="180.0" r="0.77532923" fill="rgb(59,173,173)" />
<circle cx="180.0" cy="180.0" r="0.77532923" fill="rgb(59,173,173)" />
<circle cx="180.0" cy="180.0" r="0.77532923" fill="rgb(59,173,173)" />
<circle cx="180.0" cy="180.0" r="0.77532923" fill="rgb(59,173,173)" />
<circle cx="180.0" cy="180.0" r="0.77532923" fill="rgb(59,173,173)" />
<circle cx="180.0" cy="180.0" r="0.7107185" fill="rgb(59,173,173)" />
<circle cx="180.0" cy="180.0" r="0.7107185" fill="rgb(59,173,173)" />
<circle cx="180.0" cy="180.0" r="0.7107185" fill="rgb(59,173,173)" />
<circle cx="180.0" cy="180.0" r="0.7107185" fill="rgb(59,173,173)" />
<circle cx="180.0" cy="180.0" r="0.7107185" fill="rgb(59,173,173)" />
<circle cx="180.0" cy="180.0" r="0.7107185" fill="rgb(59,173,173)" />
<circle cx="180.0" cy="180.0" r="0.7107185" fill="rgb(59,173,173)" />
<circle cx="180.0" cy="180.0" r="0.64610773" fill="rgb(59,173,173)" />
<circle cx="180.0" cy="180.0" r="0.64610773" fill="rgb(59,173,173)" />
<circle cx="180.0" cy="180.0" r="0.58149695" fill="rgb(59,173,173)" />
<circle cx="180.0" cy="180.0" r="0.58149695" fill="rgb(59,173,173)" />
<circle cx="180.0" cy="180.0" r="0.58149695" fill="rgb(59,173,173)" />
<circle cx="180.0" cy="180.0" r="0.5168862" fill="rgb(59,173,173)" />
<circle cx="180.0" cy="180.0" r="0.5168862" fill="rgb(59,173,173)" />
<circle cx="180.0" cy="180.0" r="0.5168862" fill="rgb(59,173,173)" />
<circle cx="180.0" cy="180.0" r="0.5168862" fill="rgb(59,173,173)" />
<circle cx="180.0" cy="180.0" r="0.5168862" fill="rgb(59,173,173)" />
<circle cx="180.0" cy="180.0" r="0.5168862" fill="rgb(59,173,173)" />
<circle cx="180.0" cy="180.0" r="0.4522754" fill="rgb(100,214,214)" />
<circle cx="180.0" cy="180.0" r="0.4522754" fill="rgb(100,214,214)" />
<circle cx="180.0" cy="180.0" r="0.4522754" fill="rgb(100,214,214)" />
<circle cx="180.0" cy="180.0" r="0.4522754" fill="rgb(100,214,214)" />
<circle cx="180.0" cy="180.0" r="0.4522754" fill="rgb(100,214,214)" />
<circle cx="180.0" cy="180.0" r="0.38766462" fill="rgb(100,214,214)" />
<circle cx="180.0" cy="180.0" r="0.38766462" fill="rgb(100,214,214)" />
<circle cx="180.0" cy="180.0" r="0.38766462" fill="rgb(100,214,214)" />
<circle cx="180.0" cy="180.0" r="0.38766462" fill="rgb(100,214,214)" />
<circle cx="180.0" cy="180.0" r="0.32305387" fill="rgb(100,214,214)" />
<circle cx="180.0" cy="180.0" r="0.32305387" fill="rgb(100,214,214)" />
<circle cx="180.0" cy="180.0" r="0.32305387" fill="rgb(100,214,214)" />
<circle cx="180.0" cy="180.0" r="0.32305387" fill="rgb(100,214,214)" />
<circle cx="180.0" cy="180.0" r="0.32305387" fill="rgb(100,214,214)" />
<circle cx="180.0" cy="180.0" r="0.32305387" fill="rgb(100,214,214)" />
<circle cx="180.0" cy="180.0" r="0.32305387" fill="rgb(100,214,214)" />
<circle cx="180.0" cy="180.0" r="0.32305387" fill="rgb(100,214,214)" />
<circle cx="180.0" cy="180.0" r="0.2584431" fill="rgb(100,214,214)" />
<circle cx="180.0" cy="180.0" r="0.2584431" fill="rgb(100,214,214)" />
<circle cx="180.0" cy="180.0" r="0.2584431" fill="rgb(100,214,214)" />
<circle cx="180.0" cy="180.0" r="0.2584431" fill="rgb(100,214,214)" />
<circle cx="180.0" cy="180.0" r="0.2584431" fill="rgb(100,214,214)" />
<circle cx="180.0" cy="180.0" r="0.2584431" fill="rgb(100,214,214)" />
<circle cx="180.0" cy="180.0" r="0.19383231" fill="rgb(100,214,214)" />
<circle cx="180.0" cy="180.0" r="0.19383231" fill="rgb(100,214,214)" />
<circle cx="180.0" cy="180.0" r="0.19383231" fill="rgb(100,214,214)" />
<circle cx="180.0" cy="180.0" r="0.19383231" fill="rgb(100,214,214)" />
<circle cx="180.0" cy="180.0" r="0.12922154" fill="rgb(100,214,214)" />
<circle cx="180.0" cy="180.0" r="0.12922154" fill="rgb(100,214,214)" />
<circle cx="180.0" cy="180.0" r="0.06461077" fill="rgb(100,214,214)" />
</svg>
