<?xml version="1.0" encoding="UTF-8" standalone="no"?>
<!DOCTYPE svg PUBLIC "-//W3C//DTD SVG 1.1//EN" "http://www.w3.org/Graphics/SVG/1.1/DTD/svg11.dtd">
<svg width="360" height="360" viewBox="0 0 360 360" version="1.1" xmlns="http://www.w3.org/2000/svg">
<rect x="0" y="0" width="360" height="360" style="fill:white;"/>
<circle cx="180.0" cy="180.0" r="118.299385" fill="rgb(85,76,39)" />
<circle cx="252.02968" cy="50.447464" r="29.911852" fill="rgb(230,103,119)" />
<circle cx="185.14746" cy="326.38452" r="28.16736" fill="rgb(103,99,130)" />
<circle cx="122.39397" cy="47.915344" r="25.783224" fill="rgb(186,5,99)" />
<circle cx="323.06497" cy="192.09113" r="25.259876" fill="rgb(168,6,125)" />
<circle cx="310.1928" cy="144.01263" r="16.711872" fill="rgb(152,95,60)" />
<circle cx="51.18843" cy="216.83589" r="15.665177" fill="rgb(228,237,61)" />
<circle cx="79.07961" cy="267.1242" r="15.025531" fill="rgb(14,176,157)" />
<circle cx="292.07916" cy="108.07057" r="14.851082" fill="rgb(92,100,35)" />
<circle cx="296.6334" cy="243.08257" r="14.211435" fill="rgb(209,22,46)" />
<circle cx="168.9828" cy="48.912155" r="13.222891" fill="rgb(71,253,10)" />
<circle cx="79.70299" cy="97.88332" r="11.30395" fill="rgb(181,75,204)" />
<circle cx="147.0952" cy="305.2757" r="11.187652" fill="rgb(62,121,164)" />
<circle cx="58.117355" cy="139.77136" r="9.966508" fill="rgb(196,33,71)" />
<circle cx="272.96683" cy="92.27087" r="9.50131" fill="rgb(2,109,172)" />
<circle cx="301.18637" cy="218.81271" r="8.919813" fill="rgb(179,154,80)" />
<circle cx="200.70178" cy="54.850655" r="8.454616" fill="rgb(173,85,58)" />
<circle cx="261.05374" cy="277.31656" r="8.222017" fill="rgb(222,209,214)" />
<circle cx="230.5137" cy="295.81317" r="7.873119" fill="rgb(239,159,46)" />
<circle cx="274.01324" cy="263.43863" r="7.3497715" fill="rgb(200,232,61)" />
<circle cx="103.37494" cy="279.7394" r="7.3497715" fill="rgb(83,241,134)" />
<circle cx="56.21814" cy="161.20926" r="6.8264246" fill="rgb(175,110,202)" />
<circle cx="119.64842" cy="289.2656" r="6.361227" fill="rgb(106,127,93)" />
<circle cx="70.96974" cy="239.53363" r="5.6634307" fill="rgb(0,168,66)" />
<circle cx="55.75" cy="179.97379" r="5.605281" fill="rgb(117,19,109)" />
<circle cx="70.951" cy="120.39638" r="5.4889812" fill="rgb(221,127,128)" />
<circle cx="293.62878" cy="128.6328" r="5.4889812" fill="rgb(79,56,95)" />
<circle cx="105.70072" cy="79.571556" r="5.1400833" fill="rgb(134,231,246)" />
<circle cx="247.4585" cy="283.0902" r="4.8493347" fill="rgb(245,35,232)" />
<circle cx="187.64491" cy="57.16266" r="4.7330356" fill="rgb(176,255,158)" />
<circle cx="215.87906" cy="297.54617" r="4.500437" fill="rgb(19,37,143)" />
<circle cx="77.66823" cy="247.6109" r="4.325988" fill="rgb(248,219,241)" />
<circle cx="57.756126" cy="190.27577" r="4.267838" fill="rgb(141,94,42)" />
<circle cx="129.68015" cy="292.5099" r="4.0933886" fill="rgb(2,181,135)" />
<circle cx="98.56949" cy="87.34853" r="4.035239" fill="rgb(48,50,228)" />
<circle cx="152.952" cy="59.626427" r="3.9770894" fill="rgb(30,191,33)" />
<circle cx="213.9802" cy="61.370712" r="3.9770894" fill="rgb(71,247,100)" />
<circle cx="163.08029" cy="302.386" r="3.9770894" fill="rgb(55,222,236)" />
<circle cx="58.08882" cy="198.45413" r="3.8607903" fill="rgb(137,144,74)" />
<circle cx="261.1043" cy="86.13576" r="3.8026404" fill="rgb(218,211,120)" />
<circle cx="206.21313" cy="301.6836" r="3.8026404" fill="rgb(224,155,110)" />
<circle cx="303.42694" cy="170.72421" r="3.7444906" fill="rgb(175,48,11)" />
<circle cx="64.91469" cy="230.80365" r="3.686341" fill="rgb(207,197,150)" />
<circle cx="245.20657" cy="292.23254" r="3.686341" fill="rgb(84,36,90)" />
<circle cx="221.56152" cy="64.47363" r="3.6281915" fill="rgb(107,109,215)" />
<circle cx="278.9408" cy="251.24905" r="3.5700417" fill="rgb(61,6,246)" />
<circle cx="67.77157" cy="130.4009" r="3.4537423" fill="rgb(65,179,180)" />
<circle cx="92.506744" cy="83.07343" r="3.3374429" fill="rgb(133,14,91)" />
<circle cx="214.30121" cy="53.95906" r="3.3374429" fill="rgb(216,27,21)" />
<circle cx="49.335953" cy="173.02644" r="3.3374429" fill="rgb(136,185,42)" />
<circle cx="68.65354" cy="111.223305" r="3.3374429" fill="rgb(88,151,204)" />
<circle cx="286.24716" cy="257.2293" r="3.3374429" fill="rgb(180,140,243)" />
<circle cx="240.16605" cy="286.7927" r="3.279293" fill="rgb(75,112,41)" />
<circle cx="128.31458" cy="299.80127" r="3.2211435" fill="rgb(143,237,38)" />
<circle cx="48.316406" cy="190.48058" r="3.2211435" fill="rgb(199,84,150)" />
<circle cx="59.389297" cy="126.054886" r="3.2211435" fill="rgb(14,19,101)" />
<circle cx="218.06815" cy="306.7309" r="3.2211435" fill="rgb(215,15,130)" />
<circle cx="188.81754" cy="47.793716" r="3.162994" fill="rgb(219,198,70)" />
<circle cx="252.12564" cy="291.29816" r="3.162994" fill="rgb(140,207,227)" />
<circle cx="112.862495" cy="75.39098" r="3.0466943" fill="rgb(139,210,47)" />
<circle cx="303.15875" cy="162.47066" r="2.9885447" fill="rgb(2,77,18)" />
<circle cx="110.440094" cy="291.50763" r="2.9885447" fill="rgb(87,58,69)" />
<circle cx="151.46138" cy="50.302704" r="2.9303951" fill="rgb(239,104,66)" />
<circle cx="59.028183" cy="235.33058" r="2.9303951" fill="rgb(27,205,171)" />
<circle cx="267.71405" cy="79.392715" r="2.9303951" fill="rgb(204,8,203)" />
<circle cx="62.41429" cy="243.52893" r="2.9303951" fill="rgb(187,109,223)" />
<circle cx="46.326447" cy="179.37817" r="2.8722453" fill="rgb(149,145,113)" />
<circle cx="62.96666" cy="115.35569" r="2.8722453" fill="rgb(186,254,14)" />
<circle cx="49.272766" cy="150.56549" r="2.8140957" fill="rgb(24,22,92)" />
<circle cx="75.67146" cy="113.630745" r="2.755946" fill="rgb(195,132,69)" />
<circle cx="302.46115" cy="125.29368" r="2.755946" fill="rgb(110,57,37)" />
<circle cx="114.57031" cy="297.22635" r="2.755946" fill="rgb(238,255,67)" />
<circle cx="66.357574" cy="251.52048" r="2.755946" fill="rgb(217,8,125)" />
<circle cx="100.57561" cy="71.64092" r="2.755946" fill="rgb(108,192,0)" />
<circle cx="133.21237" cy="304.8191" r="2.6977963" fill="rgb(216,65,140)" />
<circle cx="243.2672" cy="298.35077" r="2.6977963" fill="rgb(162,166,92)" />
<circle cx="274.02603" cy="276.17355" r="2.6977963" fill="rgb(189,195,98)" />
<circle cx="90.66872" cy="280.64966" r="2.6977963" fill="rgb(63,156,131)" />
<circle cx="122.22131" cy="301.87244" r="2.6977963" fill="rgb(225,79,88)" />
<circle cx="56.64892" cy="171.77493" r="2.6396465" fill="rgb(65,114,92)" />
<circle cx="92.19257" cy="89.39102" r="2.6396465" fill="rgb(19,7,255)" />
<circle cx="46.18033" cy="197.23524" r="2.6396465" fill="rgb(239,43,149)" />
<circle cx="93.1618" cy="76.668594" r="2.6396465" fill="rgb(226,202,134)" />
<circle cx="225.13174" cy="307.39172" r="2.6396465" fill="rgb(186,199,254)" />
<circle cx="45.281998" cy="168.01564" r="2.6396465" fill="rgb(179,115,55)" />
<circle cx="67.49865" cy="104.88161" r="2.6396465" fill="rgb(207,29,13)" />
<circle cx="134.18661" cy="297.45654" r="2.581497" fill="rgb(247,220,195)" />
<circle cx="308.0774" cy="166.37584" r="2.581497" fill="rgb(85,150,101)" />
<circle cx="211.17767" cy="305.69092" r="2.5233471" fill="rgb(81,109,194)" />
<circle cx="85.90229" cy="85.44217" r="2.5233471" fill="rgb(1,247,65)" />
<circle cx="46.99095" cy="159.20383" r="2.5233471" fill="rgb(247,226,219)" />
<circle cx="68.05461" cy="225.33025" r="2.4651976" fill="rgb(194,250,138)" />
<circle cx="259.10458" cy="289.95074" r="2.4651976" fill="rgb(35,174,177)" />
<circle cx="211.55133" cy="48.070328" r="2.4651976" fill="rgb(134,20,75)" />
<circle cx="286.91208" cy="263.6533" r="2.4651976" fill="rgb(14,139,4)" />
<circle cx="104.07701" cy="292.62384" r="2.4651976" fill="rgb(86,91,46)" />
<circle cx="315.05917" cy="163.81906" r="2.4651976" fill="rgb(138,124,70)" />
<circle cx="43.632217" cy="186.00624" r="2.4070477" fill="rgb(126,218,34)" />
<circle cx="57.42401" cy="119.88176" r="2.4070477" fill="rgb(51,72,101)" />
<circle cx="214.6741" cy="312.2552" r="2.4070477" fill="rgb(251,20,201)" />
<circle cx="193.93993" cy="43.81157" r="2.4070477" fill="rgb(196,193,26)" />
<circle cx="250.40134" cy="297.5564" r="2.4070477" fill="rgb(88,105,64)" />
<circle cx="53.128563" cy="127.9062" r="2.3488982" fill="rgb(38,23,210)" />
<circle cx="280.66425" cy="273.40698" r="2.3488982" fill="rgb(4,46,162)" />
<circle cx="93.9007" cy="287.07788" r="2.3488982" fill="rgb(223,107,181)" />
<circle cx="184.89923" cy="42.562286" r="2.3488982" fill="rgb(49,252,108)" />
<circle cx="127.13406" cy="307.1475" r="2.2907484" fill="rgb(69,9,101)" />
<circle cx="86.31713" cy="78.94378" r="2.2907484" fill="rgb(7,246,137)" />
<circle cx="274.22748" cy="79.34862" r="2.2907484" fill="rgb(55,220,44)" />
<circle cx="232.34752" cy="307.6591" r="2.2907484" fill="rgb(159,11,102)" />
<circle cx="56.296432" cy="241.27992" r="2.2907484" fill="rgb(24,177,90)" />
<circle cx="42.035767" cy="174.47054" r="2.2907484" fill="rgb(162,123,181)" />
<circle cx="61.554504" cy="108.991005" r="2.2907484" fill="rgb(79,61,100)" />
<circle cx="266.11932" cy="288.18246" r="2.2907484" fill="rgb(156,232,115)" />
<circle cx="159.32454" cy="61.23625" r="2.2325988" fill="rgb(97,54,197)" />
<circle cx="219.51875" cy="58.463547" r="2.2325988" fill="rgb(116,180,209)" />
<circle cx="46.140976" cy="144.83856" r="2.2325988" fill="rgb(147,56,110)" />
<circle cx="205.61842" cy="43.915375" r="2.2325988" fill="rgb(20,144,114)" />
<circle cx="293.16202" cy="259.98367" r="2.2325988" fill="rgb(125,72,213)" />
<circle cx="240.97382" cy="304.4675" r="2.2325988" fill="rgb(87,11,87)" />
<circle cx="108.18261" cy="298.60052" r="2.174449" fill="rgb(103,221,30)" />
<circle cx="60.092567" cy="249.66322" r="2.174449" fill="rgb(116,41,78)" />
<circle cx="311.2871" cy="225.27652" r="2.174449" fill="rgb(109,199,152)" />
<circle cx="273.5254" cy="282.69476" r="2.174449" fill="rgb(146,117,165)" />
<circle cx="43.490036" cy="153.67542" r="2.1162994" fill="rgb(207,1,38)" />
<circle cx="305.2311" cy="119.33787" r="2.1162994" fill="rgb(49,111,233)" />
<circle cx="53.140953" cy="194.63126" r="2.0581496" fill="rgb(241,23,125)" />
</svg>
