<?xml version="1.0" encoding="UTF-8" standalone="no"?>
<!DOCTYPE svg PUBLIC "-//W3C//DTD SVG 1.1//EN" "http://www.w3.org/Graphics/SVG/1.1/DTD/svg11.dtd">
<svg width="360" height="360" viewBox="0 0 360 360" version="1.1" xmlns="http://www.w3.org/2000/svg">
<rect x="0" y="0" width="360" height="360" style="fill:white;"/>
<circle cx="180.0" cy="180.0" r="45.59969" fill="rgb(254,113,113)" />
<circle cx="180.0" cy="180.0" r="9.73226" fill="rgb(200,59,59)" />
<circle cx="180.0" cy="180.0" r="9.123993" fill="rgb(241,100,100)" />
<circle cx="180.0" cy="180.0" r="8.292696" fill="rgb(27,141,141)" />
<circle cx="180.0" cy="180.0" r="8.110216" fill="rgb(27,141,141)" />
<circle cx="180.0" cy="180.0" r="5.1297116" fill="rgb(150,9,9)" />
<circle cx="180.0" cy="180.0" r="4.764752" fill="rgb(150,9,9)" />
<circle cx="180.0" cy="180.0" r="4.5417213" fill="rgb(150,9,9)" />
<circle cx="180.0" cy="180.0" r="4.4808946" fill="rgb(191,50,50)" />
<circle cx="180.0" cy="180.0" r="4.2578635" fill="rgb(191,50,50)" />
<circle cx="180.0" cy="180.0" r="3.9131794" fill="rgb(191,50,50)" />
<circle cx="180.0" cy="180.0" r="3.2440865" fill="rgb(232,91,91)" />
<circle cx="180.0" cy="180.0" r="3.2035353" fill="rgb(232,91,91)" />
<circle cx="180.0" cy="180.0" r="2.777749" fill="rgb(232,91,91)" />
<circle cx="180.0" cy="180.0" r="2.6155448" fill="rgb(232,91,91)" />
<circle cx="180.0" cy="180.0" r="2.4127893" fill="rgb(18,132,132)" />
<circle cx="180.0" cy="180.0" r="2.250585" fill="rgb(18,132,132)" />
<circle cx="180.0" cy="180.0" r="2.169483" fill="rgb(18,132,132)" />
<circle cx="180.0" cy="180.0" r="2.0478296" fill="rgb(18,132,132)" />
<circle cx="180.0" cy="180.0" r="1.8653498" fill="rgb(18,132,132)" />
<circle cx="180.0" cy="180.0" r="1.8653498" fill="rgb(18,132,132)" />
<circle cx="180.0" cy="180.0" r="1.6828699" fill="rgb(18,132,132)" />
<circle cx="180.0" cy="180.0" r="1.5206655" fill="rgb(18,132,132)" />
<circle cx="180.0" cy="180.0" r="1.277359" fill="rgb(59,173,173)" />
<circle cx="180.0" cy="180.0" r="1.2570835" fill="rgb(59,173,173)" />
<circle cx="180.0" cy="180.0" r="1.2165325" fill="rgb(59,173,173)" />
<circle cx="180.0" cy="180.0" r="1.2165325" fill="rgb(59,173,173)" />
<circle cx="180.0" cy="180.0" r="1.0948792" fill="rgb(59,173,173)" />
<circle cx="180.0" cy="180.0" r="0.9935015" fill="rgb(59,173,173)" />
<circle cx="180.0" cy="180.0" r="0.9529504" fill="rgb(59,173,173)" />
<circle cx="180.0" cy="180.0" r="0.8718482" fill="rgb(59,173,173)" />
<circle cx="180.0" cy="180.0" r="0.8110216" fill="rgb(59,173,173)" />
<circle cx="180.0" cy="180.0" r="0.7907461" fill="rgb(59,173,173)" />
<circle cx="180.0" cy="180.0" r="0.72991943" fill="rgb(59,173,173)" />
<circle cx="180.0" cy="180.0" r="0.7096439" fill="rgb(59,173,173)" />
<circle cx="180.0" cy="180.0" r="0.68936837" fill="rgb(59,173,173)" />
<circle cx="180.0" cy="180.0" r="0.68936837" fill="rgb(59,173,173)" />
<circle cx="180.0" cy="180.0" r="0.68936837" fill="rgb(59,173,173)" />
<circle cx="180.0" cy="180.0" r="0.6488173" fill="rgb(59,173,173)" />
<circle cx="180.0" cy="180.0" r="0.62854177" fill="rgb(59,173,173)" />
<circle cx="180.0" cy="180.0" r="0.62854177" fill="rgb(59,173,173)" />
<circle cx="180.0" cy="180.0" r="0.60826623" fill="rgb(59,173,173)" />
<circle cx="180.0" cy="180.0" r="0.5879907" fill="rgb(59,173,173)" />
<circle cx="180.0" cy="180.0" r="0.5879907" fill="rgb(59,173,173)" />
<circle cx="180.0" cy="180.0" r="0.56771517" fill="rgb(59,173,173)" />
<circle cx="180.0" cy="180.0" r="0.5474396" fill="rgb(59,173,173)" />
<circle cx="180.0" cy="180.0" r="0.5068885" fill="rgb(59,173,173)" />
<circle cx="180.0" cy="180.0" r="0.46633744" fill="rgb(100,214,214)" />
<circle cx="180.0" cy="180.0" r="0.46633744" fill="rgb(100,214,214)" />
<circle cx="180.0" cy="180.0" r="0.46633744" fill="rgb(100,214,214)" />
<circle cx="180.0" cy="180.0" r="0.46633744" fill="rgb(100,214,214)" />
<circle cx="180.0" cy="180.0" r="0.46633744" fill="rgb(100,214,214)" />
<circle cx="180.0" cy="180.0" r="0.4460619" fill="rgb(100,214,214)" />
<circle cx="180.0" cy="180.0" r="0.42578635" fill="rgb(100,214,214)" />
<circle cx="180.0" cy="180.0" r="0.42578635" fill="rgb(100,214,214)" />
<circle cx="180.0" cy="180.0" r="0.42578635" fill="rgb(100,214,214)" />
<circle cx="180.0" cy="180.0" r="0.42578635" fill="rgb(100,214,214)" />
<circle cx="180.0" cy="180.0" r="0.4055108" fill="rgb(100,214,214)" />
<circle cx="180.0" cy="180.0" r="0.4055108" fill="rgb(100,214,214)" />
<circle cx="180.0" cy="180.0" r="0.36495972" fill="rgb(100,214,214)" />
<circle cx="180.0" cy="180.0" r="0.34468418" fill="rgb(100,214,214)" />
<circle cx="180.0" cy="180.0" r="0.34468418" fill="rgb(100,214,214)" />
<circle cx="180.0" cy="180.0" r="0.32440865" fill="rgb(100,214,214)" />
<circle cx="180.0" cy="180.0" r="0.32440865" fill="rgb(100,214,214)" />
<circle cx="180.0" cy="180.0" r="0.32440865" fill="rgb(100,214,214)" />
<circle cx="180.0" cy="180.0" r="0.32440865" fill="rgb(100,214,214)" />
<circle cx="180.0" cy="180.0" r="0.30413312" fill="rgb(100,214,214)" />
<circle cx="180.0" cy="180.0" r="0.30413312" fill="rgb(100,214,214)" />
<circle cx="180.0" cy="180.0" r="0.28385758" fill="rgb(100,214,214)" />
<circle cx="180.0" cy="180.0" r="0.26358202" fill="rgb(100,214,214)" />
<circle cx="180.0" cy="180.0" r="0.26358202" fill="rgb(100,214,214)" />
<circle cx="180.0" cy="180.0" r="0.26358202" fill="rgb(100,214,214)" />
<circle cx="180.0" cy="180.0" r="0.26358202" fill="rgb(100,214,214)" />
<circle cx="180.0" cy="180.0" r="0.26358202" fill="rgb(100,214,214)" />
<circle cx="180.0" cy="180.0" r="0.24330649" fill="rgb(100,214,214)" />
<circle cx="180.0" cy="180.0" r="0.24330649" fill="rgb(100,214,214)" />
<circle cx="180.0" cy="180.0" r="0.24330649" fill="rgb(100,214,214)" />
<circle cx="180.0" cy="180.0" r="0.24330649" fill="rgb(100,214,214)" />
<circle cx="180.0" cy="180.0" r="0.24330649" fill="rgb(100,214,214)" />
<circle cx="180.0" cy="180.0" r="0.22303095" fill="rgb(100,214,214)" />
<circle cx="180.0" cy="180.0" r="0.22303095" fill="rgb(100,214,214)" />
<circle cx="180.0" cy="180.0" r="0.22303095" fill="rgb(100,214,214)" />
<circle cx="180.0" cy="180.0" r="0.22303095" fill="rgb(100,214,214)" />
<circle cx="180.0" cy="180.0" r="0.22303095" fill="rgb(100,214,214)" />
<circle cx="180.0" cy="180.0" r="0.22303095" fill="rgb(100,214,214)" />
<circle cx="180.0" cy="180.0" r="0.22303095" fill="rgb(100,214,214)" />
<circle cx="180.0" cy="180.0" r="0.2027554" fill="rgb(100,214,214)" />
<circle cx="180.0" cy="180.0" r="0.2027554" fill="rgb(100,214,214)" />
<circle cx="180.0" cy="180.0" r="0.18247986" fill="rgb(100,214,214)" />
<circle cx="180.0" cy="180.0" r="0.18247986" fill="rgb(100,214,214)" />
<circle cx="180.0" cy="180.0" r="0.18247986" fill="rgb(100,214,214)" />
<circle cx="180.0" cy="180.0" r="0.16220433" fill="rgb(100,214,214)" />
<circle cx="180.0" cy="180.0" r="0.16220433" fill="rgb(100,214,214)" />
<circle cx="180.0" cy="180.0" r="0.16220433" fill="rgb(100,214,214)" />
<circle cx="180.0" cy="180.0" r="0.16220433" fill="rgb(100,214,214)" />
<circle cx="180.0" cy="180.0" r="0.16220433" fill="rgb(100,214,214)" />
<circle cx="180.0" cy="180.0" r="0.16220433" fill="rgb(100,214,214)" />
<circle cx="180.0" cy="180.0" r="0.14192879" fill="rgb(100,214,214)" />
<circle cx="180.0" cy="180.0" r="0.14192879" fill="rgb(100,214,214)" />
<circle cx="180.0" cy="180.0" r="0.14192879" fill="rgb(100,214,214)" />
<circle cx="180.0" cy="180.0" r="0.14192879" fill="rgb(100,214,214)" />
<circle cx="180.0" cy="180.0" r="0.14192879" fill="rgb(100,214,214)" />
<circle cx="180.0" cy="180.0" r="0.121653244" fill="rgb(100,214,214)" />
<circle cx="180.0" cy="180.0" r="0.121653244" fill="rgb(100,214,214)" />
<circle cx="180.0" cy="180.0" r="0.121653244" fill="rgb(100,214,214)" />
<circle cx="180.0" cy="180.0" r="0.121653244" fill="rgb(100,214,214)" />
<circle cx="180.0" cy="180.0" r="0.1013777" fill="rgb(100,214,214)" />
<circle cx="180.0" cy="180.0" r="0.1013777" fill="rgb(100,214,214)" />
<circle cx="180.0" cy="180.0" r="0.1013777" fill="rgb(100,214,214)" />
<circle cx="180.0" cy="180.0" r="0.1013777" fill="rgb(100,214,214)" />
<circle cx="180.0" cy="180.0" r="0.1013777" fill="rgb(100,214,214)" />
<circle cx="180.0" cy="180.0" r="0.1013777" fill="rgb(100,214,214)" />
<circle cx="180.0" cy="180.0" r="0.1013777" fill="rgb(100,214,214)" />
<circle cx="180.0" cy="180.0" r="0.1013777" fill="rgb(100,214,214)" />
<circle cx="180.0" cy="180.0" r="0.08110216" fill="rgb(100,214,214)" />
<circle cx="180.0" cy="180.0" r="0.08110216" fill="rgb(100,214,214)" />
<circle cx="180.0" cy="180.0" r="0.08110216" fill="rgb(100,214,214)" />
<circle cx="180.0" cy="180.0" r="0.08110216" fill="rgb(100,214,214)" />
<circle cx="180.0" cy="180.0" r="0.08110216" fill="rgb(100,214,214)" />
<circle cx="180.0" cy="180.0" r="0.08110216" fill="rgb(100,214,214)" />
<circle cx="180.0" cy="180.0" r="0.060826622" fill="rgb(100,214,214)" />
<circle cx="180.0" cy="180.0" r="0.060826622" fill="rgb(100,214,214)" />
<circle cx="180.0" cy="180.0" r="0.060826622" fill="rgb(100,214,214)" />
<circle cx="180.0" cy="180.0" r="0.060826622" fill="rgb(100,214,214)" />
<circle cx="180.0" cy="180.0" r="0.04055108" fill="rgb(100,214,214)" />
<circle cx="180.0" cy="180.0" r="0.04055108" fill="rgb(100,214,214)" />
<circle cx="180.0" cy="180.0" r="0.02027554" fill="rgb(100,214,214)" />
</svg>
