<?xml version="1.0" encoding="UTF-8" standalone="no"?>
<!DOCTYPE svg PUBLIC "-//W3C//DTD SVG 1.1//EN" "http://www.w3.org/Graphics/SVG/1.1/DTD/svg11.dtd">
<svg width="360" height="360" viewBox="0 0 360 360" version="1.1" xmlns="http://www.w3.org/2000/svg">
<rect x="0" y="0" width="360" height="360" style="fill:white;"/>
<circle cx="180.0" cy="180.0" r="2249.0" fill="rgb(201,60,60)" />
<circle cx="180.0" cy="180.0" r="480.0" fill="rgb(55,169,169)" />
<circle cx="180.0" cy="180.0" r="450.0" fill="rgb(10,124,124)" />
<circle cx="180.0" cy="180.0" r="409.0" fill="rgb(161,20,20)" />
<circle cx="180.0" cy="180.0" r="400.0" fill="rgb(20,134,134)" />
<circle cx="180.0" cy="180.0" r="253.0" fill="rgb(182,41,41)" />
<circle cx="180.0" cy="180.0" r="235.0" fill="rgb(155,14,14)" />
<circle cx="180.0" cy="180.0" r="224.0" fill="rgb(96,210,210)" />
<circle cx="180.0" cy="180.0" r="221.0" fill="rgb(219,78,78)" />
<circle cx="180.0" cy="180.0" r="210.0" fill="rgb(160,19,19)" />
<circle cx="180.0" cy="180.0" r="193.0" fill="rgb(92,206,206)" />
<circle cx="180.0" cy="180.0" r="160.0" fill="rgb(170,29,29)" />
<circle cx="180.0" cy="180.0" r="158.0" fill="rgb(252,111,111)" />
<circle cx="180.0" cy="180.0" r="137.0" fill="rgb(93,207,207)" />
<circle cx="180.0" cy="180.0" r="129.0" fill="rgb(166,25,25)" />
<circle cx="180.0" cy="180.0" r="119.0" fill="rgb(66,180,180)" />
<circle cx="180.0" cy="180.0" r="111.0" fill="rgb(139,253,253)" />
<circle cx="180.0" cy="180.0" r="107.0" fill="rgb(48,162,162)" />
<circle cx="180.0" cy="180.0" r="101.0" fill="rgb(39,153,153)" />
<circle cx="180.0" cy="180.0" r="92.0" fill="rgb(153,12,12)" />
<circle cx="180.0" cy="180.0" r="92.0" fill="rgb(153,12,12)" />
<circle cx="180.0" cy="180.0" r="83.0" fill="rgb(12,126,126)" />
<circle cx="180.0" cy="180.0" r="75.0" fill="rgb(85,199,199)" />
<circle cx="180.0" cy="180.0" r="63.0" fill="rgb(67,181,181)" />
<circle cx="180.0" cy="180.0" r="62.0" fill="rgb(108,222,222)" />
<circle cx="180.0" cy="180.0" r="60.0" fill="rgb(190,49,49)" />
<circle cx="180.0" cy="180.0" r="60.0" fill="rgb(190,49,49)" />
<circle cx="180.0" cy="180.0" r="54.0" fill="rgb(181,40,40)" />
<circle cx="180.0" cy="180.0" r="49.0" fill="rgb(131,245,245)" />
<circle cx="180.0" cy="180.0" r="47.0" fill="rgb(213,72,72)" />
<circle cx="180.0" cy="180.0" r="43.0" fill="rgb(122,236,236)" />
<circle cx="180.0" cy="180.0" r="40.0" fill="rgb(245,104,104)" />
<circle cx="180.0" cy="180.0" r="39.0" fill="rgb(31,145,145)" />
<circle cx="180.0" cy="180.0" r="36.0" fill="rgb(154,13,13)" />
<circle cx="180.0" cy="180.0" r="35.0" fill="rgb(195,54,54)" />
<circle cx="180.0" cy="180.0" r="34.0" fill="rgb(236,95,95)" />
<circle cx="180.0" cy="180.0" r="34.0" fill="rgb(236,95,95)" />
<circle cx="180.0" cy="180.0" r="34.0" fill="rgb(236,95,95)" />
<circle cx="180.0" cy="180.0" r="32.0" fill="rgb(63,177,177)" />
<circle cx="180.0" cy="180.0" r="31.0" fill="rgb(104,218,218)" />
<circle cx="180.0" cy="180.0" r="31.0" fill="rgb(104,218,218)" />
<circle cx="180.0" cy="180.0" r="30.0" fill="rgb(145,4,4)" />
<circle cx="180.0" cy="180.0" r="29.0" fill="rgb(186,45,45)" />
<circle cx="180.0" cy="180.0" r="29.0" fill="rgb(186,45,45)" />
<circle cx="180.0" cy="180.0" r="28.0" fill="rgb(227,86,86)" />
<circle cx="180.0" cy="180.0" r="27.0" fill="rgb(13,127,127)" />
<circle cx="180.0" cy="180.0" r="25.0" fill="rgb(95,209,209)" />
<circle cx="180.0" cy="180.0" r="23.0" fill="rgb(177,36,36)" />
<circle cx="180.0" cy="180.0" r="23.0" fill="rgb(177,36,36)" />
<circle cx="180.0" cy="180.0" r="23.0" fill="rgb(177,36,36)" />
<circle cx="180.0" cy="180.0" r="23.0" fill="rgb(177,36,36)" />
<circle cx="180.0" cy="180.0" r="23.0" fill="rgb(177,36,36)" />
<circle cx="180.0" cy="180.0" r="22.0" fill="rgb(218,77,77)" />
<circle cx="180.0" cy="180.0" r="21.0" fill="rgb(4,118,118)" />
<circle cx="180.0" cy="180.0" r="21.0" fill="rgb(4,118,118)" />
<circle cx="180.0" cy="180.0" r="21.0" fill="rgb(4,118,118)" />
<circle cx="180.0" cy="180.0" r="21.0" fill="rgb(4,118,118)" />
<circle cx="180.0" cy="180.0" r="20.0" fill="rgb(45,159,159)" />
<circle cx="180.0" cy="180.0" r="20.0" fill="rgb(45,159,159)" />
<circle cx="180.0" cy="180.0" r="18.0" fill="rgb(127,241,241)" />
<circle cx="180.0" cy="180.0" r="17.0" fill="rgb(168,27,27)" />
<circle cx="180.0" cy="180.0" r="17.0" fill="rgb(168,27,27)" />
<circle cx="180.0" cy="180.0" r="16.0" fill="rgb(209,68,68)" />
<circle cx="180.0" cy="180.0" r="16.0" fill="rgb(209,68,68)" />
<circle cx="180.0" cy="180.0" r="16.0" fill="rgb(209,68,68)" />
<circle cx="180.0" cy="180.0" r="16.0" fill="rgb(209,68,68)" />
<circle cx="180.0" cy="180.0" r="15.0" fill="rgb(250,109,109)" />
<circle cx="180.0" cy="180.0" r="15.0" fill="rgb(250,109,109)" />
<circle cx="180.0" cy="180.0" r="14.0" fill="rgb(36,150,150)" />
<circle cx="180.0" cy="180.0" r="13.0" fill="rgb(77,191,191)" />
<circle cx="180.0" cy="180.0" r="13.0" fill="rgb(77,191,191)" />
<circle cx="180.0" cy="180.0" r="13.0" fill="rgb(77,191,191)" />
<circle cx="180.0" cy="180.0" r="13.0" fill="rgb(77,191,191)" />
<circle cx="180.0" cy="180.0" r="13.0" fill="rgb(77,191,191)" />
<circle cx="180.0" cy="180.0" r="12.0" fill="rgb(118,232,232)" />
<circle cx="180.0" cy="180.0" r="12.0" fill="rgb(118,232,232)" />
<circle cx="180.0" cy="180.0" r="12.0" fill="rgb(118,232,232)" />
<circle cx="180.0" cy="180.0" r="12.0" fill="rgb(118,232,232)" />
<circle cx="180.0" cy="180.0" r="12.0" fill="rgb(118,232,232)" />
<circle cx="180.0" cy="180.0" r="11.0" fill="rgb(159,18,18)" />
<circle cx="180.0" cy="180.0" r="11.0" fill="rgb(159,18,18)" />
<circle cx="180.0" cy="180.0" r="11.0" fill="rgb(159,18,18)" />
<circle cx="180.0" cy="180.0" r="11.0" fill="rgb(159,18,18)" />
<circle cx="180.0" cy="180.0" r="11.0" fill="rgb(159,18,18)" />
<circle cx="180.0" cy="180.0" r="11.0" fill="rgb(159,18,18)" />
<circle cx="180.0" cy="180.0" r="11.0" fill="rgb(159,18,18)" />
<circle cx="180.0" cy="180.0" r="10.0" fill="rgb(200,59,59)" />
<circle cx="180.0" cy="180.0" r="10.0" fill="rgb(200,59,59)" />
<circle cx="180.0" cy="180.0" r="9.0" fill="rgb(241,100,100)" />
<circle cx="180.0" cy="180.0" r="9.0" fill="rgb(241,100,100)" />
<circle cx="180.0" cy="180.0" r="9.0" fill="rgb(241,100,100)" />
<circle cx="180.0" cy="180.0" r="8.0" fill="rgb(27,141,141)" />
<circle cx="180.0" cy="180.0" r="8.0" fill="rgb(27,141,141)" />
<circle cx="180.0" cy="180.0" r="8.0" fill="rgb(27,141,141)" />
<circle cx="180.0" cy="180.0" r="8.0" fill="rgb(27,141,141)" />
<circle cx="180.0" cy="180.0" r="8.0" fill="rgb(27,141,141)" />
<circle cx="180.0" cy="180.0" r="8.0" fill="rgb(27,141,141)" />
<circle cx="180.0" cy="180.0" r="7.0" fill="rgb(68,182,182)" />
<circle cx="180.0" cy="180.0" r="7.0" fill="rgb(68,182,182)" />
<circle cx="180.0" cy="180.0" r="7.0" fill="rgb(68,182,182)" />
<circle cx="180.0" cy="180.0" r="7.0" fill="rgb(68,182,182)" />
<circle cx="180.0" cy="180.0" r="7.0" fill="rgb(68,182,182)" />
<circle cx="180.0" cy="180.0" r="6.0" fill="rgb(109,223,223)" />
<circle cx="180.0" cy="180.0" r="6.0" fill="rgb(109,223,223)" />
<circle cx="180.0" cy="180.0" r="6.0" fill="rgb(109,223,223)" />
<circle cx="180.0" cy="180.0" r="6.0" fill="rgb(109,223,223)" />
<circle cx="180.0" cy="180.0" r="5.0" fill="rgb(150,9,9)" />
<circle cx="180.0" cy="180.0" r="5.0" fill="rgb(150,9,9)" />
<circle cx="180.0" cy="180.0" r="5.0" fill="rgb(150,9,9)" />
<circle cx="180.0" cy="180.0" r="5.0" fill="rgb(150,9,9)" />
<circle cx="180.0" cy="180.0" r="5.0" fill="rgb(150,9,9)" />
<circle cx="180.0" cy="180.0" r="5.0" fill="rgb(150,9,9)" />
<circle cx="180.0" cy="180.0" r="5.0" fill="rgb(150,9,9)" />
<circle cx="180.0" cy="180.0" r="5.0" fill="rgb(150,9,9)" />
<circle cx="180.0" cy="180.0" r="4.0" fill="rgb(191,50,50)" />
<circle cx="180.0" cy="180.0" r="4.0" fill="rgb(191,50,50)" />
<circle cx="180.0" cy="180.0" r="4.0" fill="rgb(191,50,50)" />
<circle cx="180.0" cy="180.0" r="4.0" fill="rgb(191,50,50)" />
<circle cx="180.0" cy="180.0" r="4.0" fill="rgb(191,50,50)" />
<circle cx="180.0" cy="180.0" r="4.0" fill="rgb(191,50,50)" />
<circle cx="180.0" cy="180.0" r="3.0" fill="rgb(232,91,91)" />
<circle cx="180.0" cy="180.0" r="3.0" fill="rgb(232,91,91)" />
<circle cx="180.0" cy="180.0" r="3.0" fill="rgb(232,91,91)" />
<circle cx="180.0" cy="180.0" r="3.0" fill="rgb(232,91,91)" />
<circle cx="180.0" cy="180.0" r="2.0" fill="rgb(18,132,132)" />
<circle cx="180.0" cy="180.0" r="2.0" fill="rgb(18,132,132)" />
<circle cx="180.0" cy="180.0" r="1.0" fill="rgb(59,173,173)" />
</svg>
