<?xml version="1.0" encoding="UTF-8" standalone="no"?>
<!DOCTYPE svg PUBLIC "-//W3C//DTD SVG 1.1//EN" "http://www.w3.org/Graphics/SVG/1.1/DTD/svg11.dtd">
<svg width="360" height="360" viewBox="0 0 360 360" version="1.1" xmlns="http://www.w3.org/2000/svg">
<rect x="0" y="0" width="360" height="360" style="fill:white;"/>
<circle cx="180.0" cy="180.0" r="105.93071" fill="rgb(186,106,254)" />
<circle cx="253.26443" cy="285.61572" r="22.608599" fill="rgb(26,237,77)" />
<circle cx="213.50934" cy="304.11243" r="21.195562" fill="rgb(64,128,61)" />
<circle cx="173.22711" cy="308.3938" r="19.26441" fill="rgb(44,237,148)" />
<circle cx="135.84085" cy="300.76688" r="18.8405" fill="rgb(190,111,158)" />
<circle cx="108.36822" cy="286.8019" r="11.9166155" fill="rgb(163,78,0)" />
<circle cx="90.4274" cy="272.28662" r="11.068793" fill="rgb(187,21,113)" />
<circle cx="76.17853" cy="255.9167" r="10.550679" fill="rgb(54,69,131)" />
<circle cx="65.16604" cy="237.94409" r="10.409376" fill="rgb(74,91,40)" />
<circle cx="57.46382" cy="219.13147" r="9.891262" fill="rgb(241,139,30)" />
<circle cx="53.016716" cy="200.58011" r="9.090541" fill="rgb(132,58,176)" />
<circle cx="51.41429" cy="183.96034" r="7.5361996" fill="rgb(63,68,97)" />
<circle cx="51.82733" cy="168.8985" r="7.441997" fill="rgb(102,211,235)" />
<circle cx="53.775337" cy="155.0961" r="6.452871" fill="rgb(251,224,50)" />
<circle cx="56.800224" cy="142.9063" r="6.076061" fill="rgb(137,175,186)" />
<circle cx="60.66799" cy="131.8838" r="5.6050487" fill="rgb(158,187,120)" />
<circle cx="65.17771" cy="121.92908" r="5.2282386" fill="rgb(22,141,174)" />
<circle cx="70.187485" cy="112.92815" r="5.0398335" fill="rgb(79,100,185)" />
<circle cx="75.60687" cy="104.76388" r="4.757226" fill="rgb(74,246,138)" />
<circle cx="81.22826" cy="97.5169" r="4.333315" fill="rgb(76,180,9)" />
<circle cx="87.00371" cy="91.05127" r="4.333315" fill="rgb(231,56,213)" />
<circle cx="92.92368" cy="85.24384" r="3.9094036" fill="rgb(158,90,165)" />
<circle cx="98.62021" cy="80.30497" r="3.5325935" fill="rgb(210,141,112)" />
<circle cx="103.78407" cy="76.30066" r="2.9673786" fill="rgb(11,130,218)" />
<circle cx="108.62103" cy="72.91099" r="2.9202774" fill="rgb(80,53,141)" />
<circle cx="113.50091" cy="69.81171" r="2.8260748" fill="rgb(63,252,73)" />
<circle cx="118.404755" cy="66.994774" r="2.8260748" fill="rgb(195,134,93)" />
<circle cx="123.20207" cy="64.50675" r="2.5434673" fill="rgb(174,255,158)" />
<circle cx="127.64009" cy="62.42608" r="2.3079612" fill="rgb(249,156,203)" />
<circle cx="131.8044" cy="60.656715" r="2.2137587" fill="rgb(231,38,250)" />
<circle cx="135.79224" cy="59.12097" r="2.0253537" fill="rgb(229,76,119)" />
<circle cx="139.59018" cy="57.797234" r="1.8840499" fill="rgb(77,97,171)" />
<circle cx="143.18674" cy="56.66456" r="1.8369486" fill="rgb(130,242,239)" />
<circle cx="146.69357" cy="55.670235" r="1.695645" fill="rgb(252,173,30)" />
<circle cx="149.98268" cy="54.83407" r="1.6485437" fill="rgb(172,171,17)" />
<circle cx="153.1698" cy="54.11109" r="1.6014425" fill="rgb(200,107,56)" />
<circle cx="156.37427" cy="53.46927" r="1.6014425" fill="rgb(24,76,11)" />
<circle cx="159.59402" cy="52.90899" r="1.6014425" fill="rgb(130,97,144)" />
<circle cx="162.70245" cy="52.44751" r="1.5072399" fill="rgb(137,79,248)" />
<circle cx="165.6963" cy="52.075996" r="1.4601387" fill="rgb(79,219,90)" />
<circle cx="168.69807" cy="51.77475" r="1.4601387" fill="rgb(226,152,151)" />
<circle cx="171.58067" cy="51.55214" r="1.4130374" fill="rgb(249,94,228)" />
<circle cx="174.46756" cy="51.394333" r="1.3659362" fill="rgb(115,246,152)" />
<circle cx="177.23161" cy="51.304077" r="1.3659362" fill="rgb(130,74,151)" />
<circle cx="179.997" cy="51.27324" r="1.3188349" fill="rgb(143,20,224)" />
<circle cx="182.63673" cy="51.299225" r="1.2717336" fill="rgb(52,76,24)" />
<circle cx="185.1498" cy="51.3743" r="1.1775312" fill="rgb(130,31,146)" />
<circle cx="187.40993" cy="51.483795" r="1.0833287" fill="rgb(165,60,43)" />
<circle cx="189.66782" cy="51.633026" r="1.0833287" fill="rgb(70,208,222)" />
<circle cx="191.92273" cy="51.821915" r="1.0833287" fill="rgb(223,102,161)" />
</svg>
