<?xml version="1.0" encoding="UTF-8" standalone="no"?>
<!DOCTYPE svg PUBLIC "-//W3C//DTD SVG 1.1//EN" "http://www.w3.org/Graphics/SVG/1.1/DTD/svg11.dtd">
<svg width="360" height="360" viewBox="0 0 360 360" version="1.1" xmlns="http://www.w3.org/2000/svg">
<rect x="0" y="0" width="360" height="360" style="fill:white;"/>
<circle cx="180.0" cy="180.0" r="52.521088" fill="rgb(26,241,185)" />
<circle cx="105.88605" cy="110.21001" r="49.238518" fill="rgb(12,226,69)" />
<circle cx="191.58789" cy="69.60492" r="44.752342" fill="rgb(125,243,156)" />
<circle cx="272.73868" cy="105.58784" r="43.76757" fill="rgb(198,64,187)" />
<circle cx="304.53964" cy="170.49416" r="27.68299" fill="rgb(236,131,226)" />
<circle cx="301.19827" cy="224.76756" r="25.713448" fill="rgb(251,178,185)" />
<circle cx="277.94647" cy="270.1258" r="24.50984" fill="rgb(253,167,82)" />
<circle cx="240.35881" cy="302.76666" r="24.181583" fill="rgb(61,180,139)" />
<circle cx="194.97551" cy="319.50073" r="22.977976" fill="rgb(172,118,158)" />
<circle cx="149.65533" cy="320.25732" r="21.117853" fill="rgb(101,41,204)" />
<circle cx="112.08868" cy="309.47275" r="17.507029" fill="rgb(215,217,214)" />
<circle cx="81.67043" cy="291.41806" r="17.28819" fill="rgb(73,154,155)" />
<circle cx="57.94461" cy="268.56564" r="14.990394" fill="rgb(26,157,19)" />
<circle cx="40.962128" cy="243.38054" r="14.115042" fill="rgb(154,20,131)" />
<circle cx="30.116241" cy="217.90538" r="13.020852" fill="rgb(3,202,167)" />
<circle cx="24.16896" cy="192.13263" r="12.145501" fill="rgb(44,113,239)" />
<circle cx="22.63182" cy="167.01884" r="11.707826" fill="rgb(189,97,206)" />
<circle cx="24.87918" cy="143.30193" r="11.0513115" fill="rgb(131,35,172)" />
<circle cx="30.213898" cy="121.50517" r="10.066542" fill="rgb(97,182,8)" />
<circle cx="37.92154" cy="101.95505" r="10.066542" fill="rgb(156,209,6)" />
<circle cx="47.311417" cy="84.8079" r="9.081771" fill="rgb(95,136,89)" />
<circle cx="57.745667" cy="70.08112" r="8.20642" fill="rgb(52,95,159)" />
<circle cx="68.657104" cy="57.685417" r="6.8933926" fill="rgb(105,5,49)" />
<circle cx="79.55788" cy="47.455597" r="6.7839737" fill="rgb(148,229,36)" />
<circle cx="90.04094" cy="39.178345" r="6.565136" fill="rgb(254,158,138)" />
<circle cx="101.20721" cy="31.733093" r="6.565136" fill="rgb(161,103,68)" />
<circle cx="112.990425" cy="25.176254" r="5.9086223" fill="rgb(80,155,245)" />
<circle cx="123.75117" cy="20.20819" r="5.3615274" fill="rgb(215,182,156)" />
<circle cx="134.87979" cy="15.990311" r="5.1426897" fill="rgb(20,146,1)" />
<circle cx="144.67172" cy="12.992767" r="4.7050138" fill="rgb(219,6,59)" />
<circle cx="154.6612" cy="10.581436" r="4.376757" fill="rgb(202,91,179)" />
<circle cx="164.81303" cy="8.76918" r="4.2673383" fill="rgb(56,217,23)" />
<circle cx="173.37096" cy="7.7245026" r="3.9390814" fill="rgb(183,157,12)" />
<circle cx="181.99539" cy="7.1085052" r="3.8296626" fill="rgb(122,185,35)" />
<circle cx="190.66483" cy="6.925247" r="3.7202435" fill="rgb(193,141,2)" />
<circle cx="199.35748" cy="7.1776886" r="3.7202435" fill="rgb(247,2,164)" />
<circle cx="208.05142" cy="7.8676605" r="3.7202435" fill="rgb(200,0,247)" />
<circle cx="216.72458" cy="8.995956" r="3.5014057" fill="rgb(149,112,12)" />
<circle cx="223.63326" cy="10.213959" r="3.3919868" fill="rgb(16,167,29)" />
<circle cx="230.50311" cy="11.711548" r="3.3919868" fill="rgb(233,227,61)" />
<circle cx="237.32281" cy="13.487579" r="3.282568" fill="rgb(235,119,16)" />
<circle cx="244.08107" cy="15.540421" r="3.1731489" fill="rgb(155,233,185)" />
<circle cx="250.7666" cy="17.867981" r="3.1731489" fill="rgb(66,195,231)" />
<circle cx="257.36823" cy="20.467728" r="3.06373" fill="rgb(128,95,200)" />
<circle cx="263.87488" cy="23.336685" r="2.9543111" fill="rgb(81,84,249)" />
<circle cx="270.27557" cy="26.47136" r="2.7354732" fill="rgb(111,84,75)" />
<circle cx="274.99997" cy="28.99443" r="2.5166354" fill="rgb(163,225,63)" />
<circle cx="279.6541" cy="31.66298" r="2.5166354" fill="rgb(159,48,212)" />
<circle cx="284.2335" cy="34.475082" r="2.5166354" fill="rgb(185,125,195)" />
</svg>
