<?xml version="1.0" encoding="UTF-8" standalone="no"?>
<!DOCTYPE svg PUBLIC "-//W3C//DTD SVG 1.1//EN" "http://www.w3.org/Graphics/SVG/1.1/DTD/svg11.dtd">
<svg width="360" height="360" viewBox="0 0 360 360" version="1.1" xmlns="http://www.w3.org/2000/svg">
<rect x="0" y="0" width="360" height="360" style="fill:white;"/>
<circle cx="180.0" cy="180.0" r="72.045395" fill="rgb(208,67,67)" />
<circle cx="180.0" cy="180.0" r="67.54256" fill="rgb(117,231,231)" />
<circle cx="180.0" cy="180.0" r="61.38868" fill="rgb(149,8,8)" />
<circle cx="180.0" cy="180.0" r="60.037827" fill="rgb(190,49,49)" />
<circle cx="180.0" cy="180.0" r="37.973927" fill="rgb(72,186,186)" />
<circle cx="180.0" cy="180.0" r="35.272224" fill="rgb(195,54,54)" />
<circle cx="180.0" cy="180.0" r="33.621185" fill="rgb(236,95,95)" />
<circle cx="180.0" cy="180.0" r="33.1709" fill="rgb(22,136,136)" />
<circle cx="180.0" cy="180.0" r="31.51986" fill="rgb(63,177,177)" />
<circle cx="180.0" cy="180.0" r="28.968252" fill="rgb(186,45,45)" />
<circle cx="180.0" cy="180.0" r="24.015131" fill="rgb(136,250,250)" />
<circle cx="180.0" cy="180.0" r="23.714941" fill="rgb(136,250,250)" />
<circle cx="180.0" cy="180.0" r="20.562956" fill="rgb(4,118,118)" />
<circle cx="180.0" cy="180.0" r="19.3622" fill="rgb(86,200,200)" />
<circle cx="180.0" cy="180.0" r="17.861254" fill="rgb(127,241,241)" />
<circle cx="180.0" cy="180.0" r="16.660498" fill="rgb(168,27,27)" />
<circle cx="180.0" cy="180.0" r="16.06012" fill="rgb(209,68,68)" />
<circle cx="180.0" cy="180.0" r="15.159552" fill="rgb(250,109,109)" />
<circle cx="180.0" cy="180.0" r="13.808701" fill="rgb(36,150,150)" />
<circle cx="180.0" cy="180.0" r="13.808701" fill="rgb(36,150,150)" />
<circle cx="180.0" cy="180.0" r="12.4578495" fill="rgb(118,232,232)" />
<circle cx="180.0" cy="180.0" r="11.257092" fill="rgb(159,18,18)" />
<circle cx="180.0" cy="180.0" r="9.455957" fill="rgb(241,100,100)" />
<circle cx="180.0" cy="180.0" r="9.305863" fill="rgb(241,100,100)" />
<circle cx="180.0" cy="180.0" r="9.005674" fill="rgb(241,100,100)" />
<circle cx="180.0" cy="180.0" r="9.005674" fill="rgb(241,100,100)" />
<circle cx="180.0" cy="180.0" r="8.105106" fill="rgb(27,141,141)" />
<circle cx="180.0" cy="180.0" r="7.354634" fill="rgb(68,182,182)" />
<circle cx="180.0" cy="180.0" r="7.054445" fill="rgb(68,182,182)" />
<circle cx="180.0" cy="180.0" r="6.4540663" fill="rgb(109,223,223)" />
<circle cx="180.0" cy="180.0" r="6.0037827" fill="rgb(109,223,223)" />
<circle cx="180.0" cy="180.0" r="5.8536882" fill="rgb(109,223,223)" />
<circle cx="180.0" cy="180.0" r="5.403404" fill="rgb(150,9,9)" />
<circle cx="180.0" cy="180.0" r="5.2533097" fill="rgb(150,9,9)" />
<circle cx="180.0" cy="180.0" r="5.103215" fill="rgb(150,9,9)" />
<circle cx="180.0" cy="180.0" r="5.103215" fill="rgb(150,9,9)" />
<circle cx="180.0" cy="180.0" r="5.103215" fill="rgb(150,9,9)" />
<circle cx="180.0" cy="180.0" r="4.803026" fill="rgb(150,9,9)" />
<circle cx="180.0" cy="180.0" r="4.6529317" fill="rgb(150,9,9)" />
<circle cx="180.0" cy="180.0" r="4.6529317" fill="rgb(150,9,9)" />
<circle cx="180.0" cy="180.0" r="4.502837" fill="rgb(150,9,9)" />
<circle cx="180.0" cy="180.0" r="4.3527427" fill="rgb(191,50,50)" />
<circle cx="180.0" cy="180.0" r="4.3527427" fill="rgb(191,50,50)" />
<circle cx="180.0" cy="180.0" r="4.202648" fill="rgb(191,50,50)" />
<circle cx="180.0" cy="180.0" r="4.052553" fill="rgb(191,50,50)" />
<circle cx="180.0" cy="180.0" r="3.7523642" fill="rgb(191,50,50)" />
<circle cx="180.0" cy="180.0" r="3.4521751" fill="rgb(232,91,91)" />
<circle cx="180.0" cy="180.0" r="3.4521751" fill="rgb(232,91,91)" />
<circle cx="180.0" cy="180.0" r="3.4521751" fill="rgb(232,91,91)" />
<circle cx="180.0" cy="180.0" r="3.4521751" fill="rgb(232,91,91)" />
<circle cx="180.0" cy="180.0" r="3.4521751" fill="rgb(232,91,91)" />
<circle cx="180.0" cy="180.0" r="3.3020806" fill="rgb(232,91,91)" />
<circle cx="180.0" cy="180.0" r="3.151986" fill="rgb(232,91,91)" />
<circle cx="180.0" cy="180.0" r="3.151986" fill="rgb(232,91,91)" />
<circle cx="180.0" cy="180.0" r="3.151986" fill="rgb(232,91,91)" />
<circle cx="180.0" cy="180.0" r="3.151986" fill="rgb(232,91,91)" />
<circle cx="180.0" cy="180.0" r="3.0018914" fill="rgb(232,91,91)" />
<circle cx="180.0" cy="180.0" r="3.0018914" fill="rgb(232,91,91)" />
<circle cx="180.0" cy="180.0" r="2.701702" fill="rgb(232,91,91)" />
<circle cx="180.0" cy="180.0" r="2.5516076" fill="rgb(232,91,91)" />
<circle cx="180.0" cy="180.0" r="2.5516076" fill="rgb(232,91,91)" />
<circle cx="180.0" cy="180.0" r="2.401513" fill="rgb(18,132,132)" />
<circle cx="180.0" cy="180.0" r="2.401513" fill="rgb(18,132,132)" />
<circle cx="180.0" cy="180.0" r="2.401513" fill="rgb(18,132,132)" />
<circle cx="180.0" cy="180.0" r="2.401513" fill="rgb(18,132,132)" />
<circle cx="180.0" cy="180.0" r="2.2514186" fill="rgb(18,132,132)" />
<circle cx="180.0" cy="180.0" r="2.2514186" fill="rgb(18,132,132)" />
<circle cx="180.0" cy="180.0" r="2.101324" fill="rgb(18,132,132)" />
<circle cx="180.0" cy="180.0" r="1.9512293" fill="rgb(18,132,132)" />
<circle cx="180.0" cy="180.0" r="1.9512293" fill="rgb(18,132,132)" />
<circle cx="180.0" cy="180.0" r="1.9512293" fill="rgb(18,132,132)" />
<circle cx="180.0" cy="180.0" r="1.9512293" fill="rgb(18,132,132)" />
<circle cx="180.0" cy="180.0" r="1.9512293" fill="rgb(18,132,132)" />
<circle cx="180.0" cy="180.0" r="1.8011348" fill="rgb(18,132,132)" />
<circle cx="180.0" cy="180.0" r="1.8011348" fill="rgb(18,132,132)" />
<circle cx="180.0" cy="180.0" r="1.8011348" fill="rgb(18,132,132)" />
<circle cx="180.0" cy="180.0" r="1.8011348" fill="rgb(18,132,132)" />
<circle cx="180.0" cy="180.0" r="1.8011348" fill="rgb(18,132,132)" />
<circle cx="180.0" cy="180.0" r="1.6510403" fill="rgb(18,132,132)" />
<circle cx="180.0" cy="180.0" r="1.6510403" fill="rgb(18,132,132)" />
<circle cx="180.0" cy="180.0" r="1.6510403" fill="rgb(18,132,132)" />
<circle cx="180.0" cy="180.0" r="1.6510403" fill="rgb(18,132,132)" />
<circle cx="180.0" cy="180.0" r="1.6510403" fill="rgb(18,132,132)" />
<circle cx="180.0" cy="180.0" r="1.6510403" fill="rgb(18,132,132)" />
<circle cx="180.0" cy="180.0" r="1.6510403" fill="rgb(18,132,132)" />
<circle cx="180.0" cy="180.0" r="1.5009457" fill="rgb(18,132,132)" />
<circle cx="180.0" cy="180.0" r="1.5009457" fill="rgb(18,132,132)" />
<circle cx="180.0" cy="180.0" r="1.350851" fill="rgb(59,173,173)" />
<circle cx="180.0" cy="180.0" r="1.350851" fill="rgb(59,173,173)" />
<circle cx="180.0" cy="180.0" r="1.350851" fill="rgb(59,173,173)" />
<circle cx="180.0" cy="180.0" r="1.2007565" fill="rgb(59,173,173)" />
<circle cx="180.0" cy="180.0" r="1.2007565" fill="rgb(59,173,173)" />
<circle cx="180.0" cy="180.0" r="1.2007565" fill="rgb(59,173,173)" />
<circle cx="180.0" cy="180.0" r="1.2007565" fill="rgb(59,173,173)" />
<circle cx="180.0" cy="180.0" r="1.2007565" fill="rgb(59,173,173)" />
<circle cx="180.0" cy="180.0" r="1.2007565" fill="rgb(59,173,173)" />
<circle cx="180.0" cy="180.0" r="1.050662" fill="rgb(59,173,173)" />
<circle cx="180.0" cy="180.0" r="1.050662" fill="rgb(59,173,173)" />
<circle cx="180.0" cy="180.0" r="1.050662" fill="rgb(59,173,173)" />
<circle cx="180.0" cy="180.0" r="1.050662" fill="rgb(59,173,173)" />
<circle cx="180.0" cy="180.0" r="1.050662" fill="rgb(59,173,173)" />
<circle cx="180.0" cy="180.0" r="0.9005674" fill="rgb(59,173,173)" />
<circle cx="180.0" cy="180.0" r="0.9005674" fill="rgb(59,173,173)" />
<circle cx="180.0" cy="180.0" r="0.9005674" fill="rgb(59,173,173)" />
<circle cx="180.0" cy="180.0" r="0.9005674" fill="rgb(59,173,173)" />
<circle cx="180.0" cy="180.0" r="0.75047284" fill="rgb(59,173,173)" />
<circle cx="180.0" cy="180.0" r="0.75047284" fill="rgb(59,173,173)" />
<circle cx="180.0" cy="180.0" r="0.75047284" fill="rgb(59,173,173)" />
<circle cx="180.0" cy="180.0" r="0.75047284" fill="rgb(59,173,173)" />
<circle cx="180.0" cy="180.0" r="0.75047284" fill="rgb(59,173,173)" />
<circle cx="180.0" cy="180.0" r="0.75047284" fill="rgb(59,173,173)" />
<circle cx="180.0" cy="180.0" r="0.75047284" fill="rgb(59,173,173)" />
<circle cx="180.0" cy="180.0" r="0.75047284" fill="rgb(59,173,173)" />
<circle cx="180.0" cy="180.0" r="0.6003783" fill="rgb(59,173,173)" />
<circle cx="180.0" cy="180.0" r="0.6003783" fill="rgb(59,173,173)" />
<circle cx="180.0" cy="180.0" r="0.6003783" fill="rgb(59,173,173)" />
<circle cx="180.0" cy="180.0" r="0.6003783" fill="rgb(59,173,173)" />
<circle cx="180.0" cy="180.0" r="0.6003783" fill="rgb(59,173,173)" />
<circle cx="180.0" cy="180.0" r="0.6003783" fill="rgb(59,173,173)" />
<circle cx="180.0" cy="180.0" r="0.4502837" fill="rgb(100,214,214)" />
<circle cx="180.0" cy="180.0" r="0.4502837" fill="rgb(100,214,214)" />
<circle cx="180.0" cy="180.0" r="0.4502837" fill="rgb(100,214,214)" />
<circle cx="180.0" cy="180.0" r="0.4502837" fill="rgb(100,214,214)" />
<circle cx="180.0" cy="180.0" r="0.30018914" fill="rgb(100,214,214)" />
<circle cx="180.0" cy="180.0" r="0.30018914" fill="rgb(100,214,214)" />
<circle cx="180.0" cy="180.0" r="0.15009457" fill="rgb(100,214,214)" />
</svg>
