<?xml version="1.0" encoding="UTF-8" standalone="no"?>
<!DOCTYPE svg PUBLIC "-//W3C//DTD SVG 1.1//EN" "http://www.w3.org/Graphics/SVG/1.1/DTD/svg11.dtd">
<svg width="360" height="360" viewBox="0 0 360 360" version="1.1" xmlns="http://www.w3.org/2000/svg">
<rect x="0" y="0" width="360" height="360" style="fill:white;"/>
<circle cx="180.0" cy="180.0" r="2249.0" fill="rgb(151,91,1)" />
<circle cx="180.0" cy="180.0" r="480.0" fill="rgb(5,200,110)" />
<circle cx="180.0" cy="180.0" r="450.0" fill="rgb(215,155,65)" />
<circle cx="180.0" cy="180.0" r="409.0" fill="rgb(111,51,216)" />
<circle cx="180.0" cy="180.0" r="400.0" fill="rgb(225,165,75)" />
<circle cx="180.0" cy="180.0" r="253.0" fill="rgb(132,72,237)" />
<circle cx="180.0" cy="180.0" r="235.0" fill="rgb(105,45,210)" />
<circle cx="180.0" cy="180.0" r="224.0" fill="rgb(46,241,151)" />
<circle cx="180.0" cy="180.0" r="221.0" fill="rgb(169,109,19)" />
<circle cx="180.0" cy="180.0" r="210.0" fill="rgb(110,50,215)" />
<circle cx="180.0" cy="180.0" r="193.0" fill="rgb(42,237,147)" />
<circle cx="180.0" cy="180.0" r="160.0" fill="rgb(120,60,225)" />
<circle cx="180.0" cy="180.0" r="158.0" fill="rgb(202,142,52)" />
<circle cx="180.0" cy="180.0" r="137.0" fill="rgb(43,238,148)" />
<circle cx="180.0" cy="180.0" r="129.0" fill="rgb(116,56,221)" />
<circle cx="180.0" cy="180.0" r="119.0" fill="rgb(16,211,121)" />
<circle cx="180.0" cy="180.0" r="111.0" fill="rgb(89,29,194)" />
<circle cx="180.0" cy="180.0" r="107.0" fill="rgb(253,193,103)" />
<circle cx="180.0" cy="180.0" r="101.0" fill="rgb(244,184,94)" />
<circle cx="180.0" cy="180.0" r="92.0" fill="rgb(103,43,208)" />
<circle cx="180.0" cy="180.0" r="92.0" fill="rgb(103,43,208)" />
<circle cx="180.0" cy="180.0" r="83.0" fill="rgb(217,157,67)" />
<circle cx="180.0" cy="180.0" r="75.0" fill="rgb(35,230,140)" />
<circle cx="180.0" cy="180.0" r="63.0" fill="rgb(17,212,122)" />
<circle cx="180.0" cy="180.0" r="62.0" fill="rgb(58,253,163)" />
<circle cx="180.0" cy="180.0" r="60.0" fill="rgb(140,80,245)" />
<circle cx="180.0" cy="180.0" r="60.0" fill="rgb(140,80,245)" />
<circle cx="180.0" cy="180.0" r="54.0" fill="rgb(131,71,236)" />
<circle cx="180.0" cy="180.0" r="49.0" fill="rgb(81,21,186)" />
<circle cx="180.0" cy="180.0" r="47.0" fill="rgb(163,103,13)" />
<circle cx="180.0" cy="180.0" r="43.0" fill="rgb(72,12,177)" />
<circle cx="180.0" cy="180.0" r="40.0" fill="rgb(195,135,45)" />
<circle cx="180.0" cy="180.0" r="39.0" fill="rgb(236,176,86)" />
<circle cx="180.0" cy="180.0" r="36.0" fill="rgb(104,44,209)" />
<circle cx="180.0" cy="180.0" r="35.0" fill="rgb(145,85,250)" />
<circle cx="180.0" cy="180.0" r="34.0" fill="rgb(186,126,36)" />
<circle cx="180.0" cy="180.0" r="34.0" fill="rgb(186,126,36)" />
<circle cx="180.0" cy="180.0" r="34.0" fill="rgb(186,126,36)" />
<circle cx="180.0" cy="180.0" r="32.0" fill="rgb(13,208,118)" />
<circle cx="180.0" cy="180.0" r="31.0" fill="rgb(54,249,159)" />
<circle cx="180.0" cy="180.0" r="31.0" fill="rgb(54,249,159)" />
<circle cx="180.0" cy="180.0" r="30.0" fill="rgb(95,35,200)" />
<circle cx="180.0" cy="180.0" r="29.0" fill="rgb(136,76,241)" />
<circle cx="180.0" cy="180.0" r="29.0" fill="rgb(136,76,241)" />
<circle cx="180.0" cy="180.0" r="28.0" fill="rgb(177,117,27)" />
<circle cx="180.0" cy="180.0" r="27.0" fill="rgb(218,158,68)" />
<circle cx="180.0" cy="180.0" r="25.0" fill="rgb(45,240,150)" />
<circle cx="180.0" cy="180.0" r="23.0" fill="rgb(127,67,232)" />
<circle cx="180.0" cy="180.0" r="23.0" fill="rgb(127,67,232)" />
<circle cx="180.0" cy="180.0" r="23.0" fill="rgb(127,67,232)" />
<circle cx="180.0" cy="180.0" r="23.0" fill="rgb(127,67,232)" />
<circle cx="180.0" cy="180.0" r="23.0" fill="rgb(127,67,232)" />
<circle cx="180.0" cy="180.0" r="22.0" fill="rgb(168,108,18)" />
<circle cx="180.0" cy="180.0" r="21.0" fill="rgb(209,149,59)" />
<circle cx="180.0" cy="180.0" r="21.0" fill="rgb(209,149,59)" />
<circle cx="180.0" cy="180.0" r="21.0" fill="rgb(209,149,59)" />
<circle cx="180.0" cy="180.0" r="21.0" fill="rgb(209,149,59)" />
<circle cx="180.0" cy="180.0" r="20.0" fill="rgb(250,190,100)" />
<circle cx="180.0" cy="180.0" r="20.0" fill="rgb(250,190,100)" />
<circle cx="180.0" cy="180.0" r="18.0" fill="rgb(77,17,182)" />
<circle cx="180.0" cy="180.0" r="17.0" fill="rgb(118,58,223)" />
<circle cx="180.0" cy="180.0" r="17.0" fill="rgb(118,58,223)" />
<circle cx="180.0" cy="180.0" r="16.0" fill="rgb(159,99,9)" />
<circle cx="180.0" cy="180.0" r="16.0" fill="rgb(159,99,9)" />
<circle cx="180.0" cy="180.0" r="16.0" fill="rgb(159,99,9)" />
<circle cx="180.0" cy="180.0" r="16.0" fill="rgb(159,99,9)" />
<circle cx="180.0" cy="180.0" r="15.0" fill="rgb(200,140,50)" />
<circle cx="180.0" cy="180.0" r="15.0" fill="rgb(200,140,50)" />
<circle cx="180.0" cy="180.0" r="14.0" fill="rgb(241,181,91)" />
<circle cx="180.0" cy="180.0" r="13.0" fill="rgb(27,222,132)" />
<circle cx="180.0" cy="180.0" r="13.0" fill="rgb(27,222,132)" />
<circle cx="180.0" cy="180.0" r="13.0" fill="rgb(27,222,132)" />
<circle cx="180.0" cy="180.0" r="13.0" fill="rgb(27,222,132)" />
<circle cx="180.0" cy="180.0" r="13.0" fill="rgb(27,222,132)" />
<circle cx="180.0" cy="180.0" r="12.0" fill="rgb(68,8,173)" />
<circle cx="180.0" cy="180.0" r="12.0" fill="rgb(68,8,173)" />
<circle cx="180.0" cy="180.0" r="12.0" fill="rgb(68,8,173)" />
<circle cx="180.0" cy="180.0" r="12.0" fill="rgb(68,8,173)" />
<circle cx="180.0" cy="180.0" r="12.0" fill="rgb(68,8,173)" />
<circle cx="180.0" cy="180.0" r="11.0" fill="rgb(109,49,214)" />
<circle cx="180.0" cy="180.0" r="11.0" fill="rgb(109,49,214)" />
<circle cx="180.0" cy="180.0" r="11.0" fill="rgb(109,49,214)" />
<circle cx="180.0" cy="180.0" r="11.0" fill="rgb(109,49,214)" />
<circle cx="180.0" cy="180.0" r="11.0" fill="rgb(109,49,214)" />
<circle cx="180.0" cy="180.0" r="11.0" fill="rgb(109,49,214)" />
<circle cx="180.0" cy="180.0" r="11.0" fill="rgb(109,49,214)" />
<circle cx="180.0" cy="180.0" r="10.0" fill="rgb(150,90,0)" />
<circle cx="180.0" cy="180.0" r="10.0" fill="rgb(150,90,0)" />
<circle cx="180.0" cy="180.0" r="9.0" fill="rgb(191,131,41)" />
<circle cx="180.0" cy="180.0" r="9.0" fill="rgb(191,131,41)" />
<circle cx="180.0" cy="180.0" r="9.0" fill="rgb(191,131,41)" />
<circle cx="180.0" cy="180.0" r="8.0" fill="rgb(232,172,82)" />
<circle cx="180.0" cy="180.0" r="8.0" fill="rgb(232,172,82)" />
<circle cx="180.0" cy="180.0" r="8.0" fill="rgb(232,172,82)" />
<circle cx="180.0" cy="180.0" r="8.0" fill="rgb(232,172,82)" />
<circle cx="180.0" cy="180.0" r="8.0" fill="rgb(232,172,82)" />
<circle cx="180.0" cy="180.0" r="8.0" fill="rgb(232,172,82)" />
<circle cx="180.0" cy="180.0" r="7.0" fill="rgb(18,213,123)" />
<circle cx="180.0" cy="180.0" r="7.0" fill="rgb(18,213,123)" />
<circle cx="180.0" cy="180.0" r="7.0" fill="rgb(18,213,123)" />
<circle cx="180.0" cy="180.0" r="7.0" fill="rgb(18,213,123)" />
<circle cx="180.0" cy="180.0" r="7.0" fill="rgb(18,213,123)" />
<circle cx="180.0" cy="180.0" r="6.0" fill="rgb(59,254,164)" />
<circle cx="180.0" cy="180.0" r="6.0" fill="rgb(59,254,164)" />
<circle cx="180.0" cy="180.0" r="6.0" fill="rgb(59,254,164)" />
<circle cx="180.0" cy="180.0" r="6.0" fill="rgb(59,254,164)" />
<circle cx="180.0" cy="180.0" r="5.0" fill="rgb(100,40,205)" />
<circle cx="180.0" cy="180.0" r="5.0" fill="rgb(100,40,205)" />
<circle cx="180.0" cy="180.0" r="5.0" fill="rgb(100,40,205)" />
<circle cx="180.0" cy="180.0" r="5.0" fill="rgb(100,40,205)" />
<circle cx="180.0" cy="180.0" r="5.0" fill="rgb(100,40,205)" />
<circle cx="180.0" cy="180.0" r="5.0" fill="rgb(100,40,205)" />
<circle cx="180.0" cy="180.0" r="5.0" fill="rgb(100,40,205)" />
<circle cx="180.0" cy="180.0" r="5.0" fill="rgb(100,40,205)" />
<circle cx="180.0" cy="180.0" r="4.0" fill="rgb(141,81,246)" />
<circle cx="180.0" cy="180.0" r="4.0" fill="rgb(141,81,246)" />
<circle cx="180.0" cy="180.0" r="4.0" fill="rgb(141,81,246)" />
<circle cx="180.0" cy="180.0" r="4.0" fill="rgb(141,81,246)" />
<circle cx="180.0" cy="180.0" r="4.0" fill="rgb(141,81,246)" />
<circle cx="180.0" cy="180.0" r="4.0" fill="rgb(141,81,246)" />
<circle cx="180.0" cy="180.0" r="3.0" fill="rgb(182,122,32)" />
<circle cx="180.0" cy="180.0" r="3.0" fill="rgb(182,122,32)" />
<circle cx="180.0" cy="180.0" r="3.0" fill="rgb(182,122,32)" />
<circle cx="180.0" cy="180.0" r="3.0" fill="rgb(182,122,32)" />
<circle cx="180.0" cy="180.0" r="2.0" fill="rgb(223,163,73)" />
<circle cx="180.0" cy="180.0" r="2.0" fill="rgb(223,163,73)" />
<circle cx="180.0" cy="180.0" r="1.0" fill="rgb(9,204,114)" />
</svg>
