<?xml version="1.0" encoding="UTF-8" standalone="no"?>
<!DOCTYPE svg PUBLIC "-//W3C//DTD SVG 1.1//EN" "http://www.w3.org/Graphics/SVG/1.1/DTD/svg11.dtd">
<svg width="360" height="360" viewBox="0 0 360 360" version="1.1" xmlns="http://www.w3.org/2000/svg">
<rect x="0" y="0" width="360" height="360" style="fill:white;"/>
<circle cx="180.0" cy="180.0" r="106.66944" fill="rgb(133,192,252)" />
<circle cx="294.9823" cy="111.56866" r="27.120667" fill="rgb(82,122,166)" />
<circle cx="307.16064" cy="216.42598" r="25.550625" fill="rgb(247,9,111)" />
<circle cx="274.1861" cy="269.74957" r="23.404902" fill="rgb(239,236,76)" />
<circle cx="79.70299" cy="97.88332" r="22.93389" fill="rgb(221,187,133)" />
<circle cx="232.6809" cy="289.9842" r="15.2406845" fill="rgb(145,70,97)" />
<circle cx="191.73784" cy="300.45444" r="14.298659" fill="rgb(193,75,198)" />
<circle cx="125.54375" cy="287.40903" r="13.722978" fill="rgb(91,10,199)" />
<circle cx="193.29929" cy="60.487694" r="13.565973" fill="rgb(44,245,180)" />
<circle cx="76.93021" cy="241.11177" r="12.990292" fill="rgb(105,34,91)" />
<circle cx="63.142876" cy="201.94589" r="12.100601" fill="rgb(164,240,33)" />
<circle cx="118.0771" cy="80.641495" r="10.373555" fill="rgb(5,116,106)" />
<circle cx="62.98562" cy="178.42336" r="10.268887" fill="rgb(154,97,14)" />
<circle cx="243.0575" cy="82.784935" r="9.169857" fill="rgb(198,150,225)" />
<circle cx="75.00829" cy="131.92487" r="8.751179" fill="rgb(169,34,149)" />
<circle cx="171.38759" cy="65.42323" r="8.227832" fill="rgb(229,220,6)" />
<circle cx="69.90212" cy="148.46535" r="7.809154" fill="rgb(20,101,28)" />
<circle cx="293.98926" cy="170.92424" r="7.5998154" fill="rgb(206,8,70)" />
<circle cx="259.72934" cy="98.51851" r="7.285807" fill="rgb(151,78,96)" />
<circle cx="157.52803" cy="291.25314" r="6.8147945" fill="rgb(179,235,6)" />
<circle cx="106.92531" cy="266.8793" r="6.8147945" fill="rgb(169,53,58)" />
<circle cx="292.93945" cy="186.02419" r="6.343782" fill="rgb(222,157,201)" />
<circle cx="224.65094" cy="76.49532" r="5.925104" fill="rgb(156,209,156)" />
<circle cx="96.99367" cy="255.60175" r="5.2970877" fill="rgb(197,26,1)" />
<circle cx="145.76788" cy="72.96588" r="5.244753" fill="rgb(87,206,127)" />
<circle cx="286.35846" cy="145.46437" r="5.1400833" fill="rgb(106,98,18)" />
<circle cx="276.24683" cy="239.4459" r="5.1400833" fill="rgb(86,128,196)" />
<circle cx="243.14545" cy="271.98715" r="4.826075" fill="rgb(0,9,206)" />
<circle cx="76.97718" cy="222.25069" r="4.5644016" fill="rgb(94,201,192)" />
<circle cx="208.39229" cy="71.89113" r="4.459732" fill="rgb(248,99,55)" />
<circle cx="110.41769" cy="93.38873" r="4.250393" fill="rgb(34,222,188)" />
<circle cx="137.50471" cy="77.67311" r="4.0933886" fill="rgb(108,234,231)" />
<circle cx="70.98382" cy="160.4799" r="4.0410542" fill="rgb(196,14,114)" />
<circle cx="288.76413" cy="160.07022" r="3.88405" fill="rgb(53,99,28)" />
<circle cx="207.59224" cy="287.15454" r="3.831715" fill="rgb(114,19,160)" />
<circle cx="160.45503" cy="70.607315" r="3.7793806" fill="rgb(99,155,216)" />
<circle cx="279.49402" cy="230.44147" r="3.7793806" fill="rgb(176,151,222)" />
<circle cx="143.40866" cy="286.1185" r="3.7793806" fill="rgb(130,55,145)" />
<circle cx="176.56195" cy="290.29642" r="3.6747112" fill="rgb(253,32,126)" />
<circle cx="170.15636" cy="296.535" r="3.6223764" fill="rgb(37,228,135)" />
<circle cx="68.64886" cy="218.89893" r="3.6223764" fill="rgb(167,29,8)" />
<circle cx="157.64105" cy="63.781242" r="3.5700417" fill="rgb(178,223,96)" />
<circle cx="210.90515" cy="293.75143" r="3.5177069" fill="rgb(182,145,64)" />
<circle cx="216.10405" cy="67.26518" r="3.5177069" fill="rgb(131,183,14)" />
<circle cx="295.57904" cy="157.23322" r="3.465372" fill="rgb(43,218,81)" />
<circle cx="294.4185" cy="149.45673" r="3.4130375" fill="rgb(5,211,96)" />
<circle cx="63.606384" cy="160.74835" r="3.3083682" fill="rgb(198,227,157)" />
<circle cx="133.29218" cy="71.61052" r="3.2036986" fill="rgb(75,11,104)" />
<circle cx="87.989" cy="255.26779" r="3.2036986" fill="rgb(158,23,228)" />
<circle cx="149.82391" cy="64.91545" r="3.2036986" fill="rgb(42,217,108)" />
<circle cx="142.55476" cy="293.4554" r="3.2036986" fill="rgb(177,151,98)" />
<circle cx="254.97375" cy="86.75271" r="3.2036986" fill="rgb(137,183,236)" />
<circle cx="85.06145" cy="124.78947" r="3.1513638" fill="rgb(248,37,241)" />
<circle cx="248.68582" cy="93.79206" r="3.099029" fill="rgb(90,15,85)" />
<circle cx="214.83383" cy="285.68222" r="3.099029" fill="rgb(135,86,187)" />
<circle cx="104.67585" cy="88.74716" r="3.099029" fill="rgb(238,193,75)" />
<circle cx="233.0147" cy="73.09865" r="3.099029" fill="rgb(188,209,231)" />
<circle cx="169.31532" cy="289.20355" r="3.0466943" fill="rgb(8,65,113)" />
<circle cx="118.25428" cy="270.73328" r="3.0466943" fill="rgb(211,5,74)" />
<circle cx="215.30127" cy="74.60482" r="2.942025" fill="rgb(91,210,254)" />
<circle cx="248.0358" cy="280.06064" r="2.8896904" fill="rgb(4,180,203)" />
<circle cx="211.30663" cy="62.91313" r="2.8896904" fill="rgb(172,148,98)" />
<circle cx="295.48785" cy="143.06607" r="2.8373556" fill="rgb(108,160,254)" />
<circle cx="109.50895" cy="278.8074" r="2.8373556" fill="rgb(135,222,137)" />
<circle cx="89.66262" cy="261.54785" r="2.8373556" fill="rgb(146,238,171)" />
<circle cx="143.41234" cy="63.825203" r="2.8373556" fill="rgb(163,212,45)" />
<circle cx="74.994576" cy="215.12672" r="2.7850208" fill="rgb(23,127,121)" />
<circle cx="70.8988" cy="226.4431" r="2.7850208" fill="rgb(247,172,13)" />
<circle cx="228.88184" cy="68.057205" r="2.732686" fill="rgb(100,209,241)" />
<circle cx="147.3647" cy="297.8653" r="2.6803513" fill="rgb(222,88,68)" />
<circle cx="94.834785" cy="267.8083" r="2.6803513" fill="rgb(157,173,29)" />
<circle cx="60.04792" cy="155.76906" r="2.6803513" fill="rgb(180,145,118)" />
<circle cx="135.5611" cy="65.92518" r="2.6803513" fill="rgb(148,53,113)" />
<circle cx="302.3209" cy="187.06946" r="2.6803513" fill="rgb(10,136,59)" />
<circle cx="300.65695" cy="160.64177" r="2.6280167" fill="rgb(36,17,245)" />
<circle cx="283.9786" cy="244.86102" r="2.6280167" fill="rgb(197,135,1)" />
<circle cx="299.7166" cy="152.54248" r="2.6280167" fill="rgb(186,66,97)" />
<circle cx="215.87906" cy="297.54617" r="2.6280167" fill="rgb(110,131,165)" />
<circle cx="65.21626" cy="224.13098" r="2.6280167" fill="rgb(201,122,40)" />
<circle cx="173.50127" cy="301.80176" r="2.575682" fill="rgb(12,210,207)" />
<circle cx="105.27415" cy="82.64769" r="2.575682" fill="rgb(163,127,158)" />
<circle cx="221.56152" cy="64.47363" r="2.575682" fill="rgb(10,141,205)" />
<circle cx="155.12714" cy="300.3823" r="2.575682" fill="rgb(192,182,240)" />
<circle cx="100.44148" cy="273.73978" r="2.575682" fill="rgb(50,37,8)" />
<circle cx="58.085487" cy="163.695" r="2.575682" fill="rgb(149,66,208)" />
<circle cx="127.828285" cy="68.55757" r="2.575682" fill="rgb(89,211,94)" />
<circle cx="161.09123" cy="58.715126" r="2.5233471" fill="rgb(243,41,231)" />
<circle cx="303.14542" cy="178.93594" r="2.5233471" fill="rgb(14,119,29)" />
<circle cx="165.51207" cy="300.48206" r="2.4710126" fill="rgb(195,62,181)" />
<circle cx="288.60242" cy="238.11705" r="2.4710126" fill="rgb(232,84,92)" />
<circle cx="64.142006" cy="137.73912" r="2.4710126" fill="rgb(206,179,149)" />
<circle cx="147.82462" cy="290.4853" r="2.4186778" fill="rgb(80,23,115)" />
<circle cx="152.952" cy="59.626427" r="2.4186778" fill="rgb(46,126,52)" />
<circle cx="238.85876" cy="71.17206" r="2.4186778" fill="rgb(243,222,128)" />
<circle cx="261.1043" cy="86.13576" r="2.4186778" fill="rgb(45,147,230)" />
<circle cx="255.07684" cy="80.464455" r="2.4186778" fill="rgb(187,166,140)" />
<circle cx="216.71799" cy="59.886932" r="2.4186778" fill="rgb(71,240,193)" />
<circle cx="154.52481" cy="68.934166" r="2.366343" fill="rgb(79,157,222)" />
<circle cx="269.8262" cy="92.176926" r="2.366343" fill="rgb(224,49,81)" />
<circle cx="300.95862" cy="145.9862" r="2.366343" fill="rgb(225,57,250)" />
<circle cx="160.57666" cy="304.24088" r="2.366343" fill="rgb(127,157,233)" />
<circle cx="103.37494" cy="279.7394" r="2.366343" fill="rgb(204,74,157)" />
<circle cx="64.91469" cy="230.80365" r="2.3140082" fill="rgb(165,189,49)" />
<circle cx="305.7682" cy="172.78455" r="2.3140082" fill="rgb(71,6,6)" />
<circle cx="83.464165" cy="261.1298" r="2.3140082" fill="rgb(13,169,252)" />
<circle cx="59.525352" cy="142.58768" r="2.3140082" fill="rgb(247,237,52)" />
<circle cx="287.8088" cy="152.74748" r="2.2616737" fill="rgb(110,190,173)" />
<circle cx="146.37534" cy="58.361923" r="2.2616737" fill="rgb(77,39,229)" />
<circle cx="208.81367" cy="57.10768" r="2.2616737" fill="rgb(97,143,218)" />
<circle cx="168.80396" cy="305.87808" r="2.2616737" fill="rgb(132,228,116)" />
<circle cx="173.31216" cy="53.65188" r="2.2616737" fill="rgb(73,77,118)" />
<circle cx="234.7162" cy="65.89023" r="2.2616737" fill="rgb(82,206,70)" />
<circle cx="305.63297" cy="164.38216" r="2.2616737" fill="rgb(176,134,210)" />
<circle cx="141.88942" cy="300.83243" r="2.2616737" fill="rgb(124,170,82)" />
<circle cx="88.60665" cy="267.78656" r="2.209339" fill="rgb(56,59,109)" />
<circle cx="56.701485" cy="150.5148" r="2.209339" fill="rgb(116,244,34)" />
<circle cx="138.17598" cy="60.269753" r="2.209339" fill="rgb(239,107,173)" />
<circle cx="53.074158" cy="186.15523" r="2.209339" fill="rgb(223,80,50)" />
<circle cx="65.63863" cy="124.53932" r="2.209339" fill="rgb(214,27,226)" />
<circle cx="164.87288" cy="53.75305" r="2.209339" fill="rgb(187,65,172)" />
<circle cx="69.30807" cy="167.68393" r="2.157004" fill="rgb(251,100,14)" />
<circle cx="92.65134" cy="249.5409" r="2.157004" fill="rgb(172,0,176)" />
<circle cx="63.13909" cy="216.23604" r="2.157004" fill="rgb(105,124,118)" />
<circle cx="109.81149" cy="285.12152" r="2.157004" fill="rgb(46,185,86)" />
<circle cx="106.2132" cy="76.48056" r="2.1046693" fill="rgb(34,193,176)" />
<circle cx="227.26001" cy="61.932335" r="2.1046693" fill="rgb(185,100,202)" />
<circle cx="130.5343" cy="80.15674" r="2.0523348" fill="rgb(7,17,185)" />
</svg>
